# xmcd
#
# Track frame offsets: 
#        150
#        19250
#        41290
#        61495
#        81785
#        102645
#        125440
#        143165
#        164360
#        180330
#        199972
#        222375
#        239985
#        259080
#        278395
#
# Disc length: 3985 seconds
#
# Revision: 46
# Processed by: cddbd v1.5.2PL0 Copyright (c) Steve Scherf et al.
# Submitted via: ExactAudioCopy v1.0b3
#
DISCID=dc0f8f0f
DTITLE=????? - Neue Musik (Disc1)
DYEAR=1998
DGENRE=JPop
TTITLE0=???????
TTITLE1=??????????
TTITLE2=BLIZZARD
TTITLE3=???????????
TTITLE4=???????????????
TTITLE5=??????
TTITLE6=SWEET DREAMS
TTITLE7=?????
TTITLE8=???????
TTITLE9=????????????????
TTITLE10=Valentine's Radio
TTITLE11=????????
TTITLE12=Hello, my friend
TTITLE13=DESTINY
TTITLE14=??????
EXTD=YEAR: 1998
EXTT0=
EXTT1=
EXTT2=
EXTT3=
EXTT4=
EXTT5=
EXTT6=
EXTT7=
EXTT8=
EXTT9=
EXTT10=
EXTT11=
EXTT12=
EXTT13=
EXTT14=
PLAYORDER=
